<svg xmlns="http://www.w3.org/2000/svg" viewBox="0 0 512.1 512.1"><path fill="#335aab" d="M312.5 199.6a119.5 119.5 0 00-169 0L34.9 308.2a119.5 119.5 0 00169 169l89.5-89.5a8.5 8.5 0 00-6-14.6H284c-18.8 0-37.3-3.5-54.7-10.6a8.5 8.5 0 00-9.3 1.9l-64.4 64.5a51.2 51.2 0 11-72.4-72.5l109-108.8c20-20 52.3-20 72.3 0a35 35 0 0048 0 34.1 34.1 0 009.9-21.7c.6-9.8-3-19.4-10-26.3z"/><path fill="#335aab" d="M477 35a119.5 119.5 0 00-168.9 0l-89.5 89.4a8.5 8.5 0 006.2 14.6h3.2c18.7 0 37.2 3.6 54.5 10.7 3.2 1.3 6.9.6 9.3-1.9l64.3-64.2a51.2 51.2 0 1172.4 72.5l-80 80-.7.7-28 27.8c-20 20-52.4 20-72.4 0a35 35 0 00-48 0 34.1 34.1 0 000 48.2c10 9.9 21.5 18 34.2 23.8l5.4 2.4 5.4 2c1.8.7 3.7 1.3 5.5 1.8l5 1.4a118.8 118.8 0 0023 3.3h6.6l5-.6c2-.1 4-.5 6.1-.5h3l5.8-.9 2.8-.5 5-1h.8c21-5.3 40.1-16.1 55.4-31.4L477.1 204a119.5 119.5 0 000-169z"/></svg>